<?xml version="1.0" standalone="no"?>
<!DOCTYPE svg PUBLIC "-//W3C//DTD SVG 20010904//EN"
 "http://www.w3.org/TR/2001/REC-SVG-20010904/DTD/svg10.dtd">
<svg version="1.0" xmlns="http://www.w3.org/2000/svg"
 width="449.000000pt" height="140.000000pt" viewBox="0 0 449.000000 140.000000"
 preserveAspectRatio="xMidYMid meet">

<g transform="translate(0.000000,140.000000) scale(0.100000,-0.100000)"
fill="#000000" stroke="none">
<path d="M2110 1265 l0 -135 -50 0 -50 0 0 -85 0 -85 49 0 50 0 3 -267 c3
-252 4 -270 24 -308 54 -100 123 -136 272 -143 l102 -5 0 102 0 101 -63 0
c-100 0 -97 -8 -97 278 l0 242 80 0 80 0 0 85 0 85 -80 0 -80 0 0 135 0 135
-120 0 -120 0 0 -135z"/>
<path d="M1386 1159 c-162 -23 -276 -129 -321 -300 -20 -73 -19 -258 0 -334
45 -172 151 -260 344 -288 143 -20 326 30 403 110 l28 29 -70 69 -69 69 -23
-21 c-43 -39 -77 -54 -136 -63 -76 -10 -146 3 -190 36 -37 29 -71 93 -72 137
l0 27 295 0 295 0 0 80 c0 194 -74 341 -208 409 -74 38 -181 53 -276 40z m169
-210 c36 -21 70 -78 80 -131 l7 -38 -181 0 -181 0 0 28 c0 38 39 111 71 135
55 40 145 42 204 6z"/>
<path d="M3144 1159 c-51 -6 -120 -34 -161 -65 -23 -16 -23 -16 -23 20 l0 36
-115 0 -115 0 0 -455 0 -456 118 3 117 3 5 312 c5 295 6 313 26 340 67 91 211
82 262 -17 21 -43 22 -53 22 -342 l0 -299 118 3 117 3 0 340 0 340 -29 63
c-60 130 -184 192 -342 171z"/>
<path d="M4000 1160 c-105 -11 -186 -45 -234 -99 l-20 -22 72 -72 71 -71 23
21 c37 35 92 53 163 53 119 0 166 -36 173 -130 l4 -60 -154 0 c-176 0 -233
-12 -300 -63 -114 -87 -126 -274 -25 -393 82 -97 308 -120 430 -44 26 16 50
30 53 30 2 0 4 -16 4 -35 l0 -36 113 3 112 3 0 335 c0 299 -2 341 -18 388 -24
68 -90 134 -161 161 -79 29 -205 42 -306 31z m250 -580 c0 -76 -21 -117 -72
-140 -52 -24 -147 -26 -188 -5 -60 31 -78 99 -39 149 28 35 65 44 192 45 l107
1 0 -50z"/>
<path d="M170 165 c0 -8 4 -15 9 -15 5 0 11 7 15 15 3 9 0 15 -9 15 -8 0 -15
-7 -15 -15z"/>
<path d="M2880 165 c0 -8 4 -15 9 -15 5 0 11 7 15 15 3 9 0 15 -9 15 -8 0 -15
-7 -15 -15z"/>
<path d="M4225 169 c-4 -6 -5 -13 -2 -16 7 -7 27 6 27 18 0 12 -17 12 -25 -2z"/>
<path d="M270 133 c-23 -9 -30 -24 -30 -65 0 -26 6 -41 21 -52 25 -17 62 -7
67 18 4 17 -13 22 -23 6 -20 -32 -53 10 -40 51 6 16 12 19 36 14 33 -8 40 9
10 25 -11 5 -21 10 -23 9 -2 0 -10 -3 -18 -6z"/>
<path d="M372 124 c-30 -21 -31 -87 -1 -108 56 -39 109 54 59 104 -24 24 -29
24 -58 4z m43 -54 c0 -25 -5 -36 -17 -38 -15 -3 -18 4 -18 38 0 34 3 41 18 38
12 -2 17 -13 17 -38z"/>
<path d="M968 129 c-33 -19 -15 -69 24 -69 10 0 18 -7 18 -16 0 -11 -8 -14
-27 -12 -31 4 -43 -17 -13 -25 30 -8 59 3 65 25 8 24 -8 44 -41 52 -30 8 -22
26 12 26 27 0 32 15 8 24 -21 8 -26 7 -46 -5z"/>
<path d="M1330 120 c-34 -34 -22 -98 21 -113 18 -6 59 18 59 34 0 13 -28 11
-32 -3 -2 -6 -12 -9 -21 -5 -12 4 -17 18 -17 43 l0 36 38 -6 37 -6 -24 20
c-29 25 -36 25 -61 0z"/>
<path d="M1708 133 c-35 -9 -37 -97 -3 -118 13 -9 28 -10 43 -4 19 7 22 16 22
58 0 39 -4 53 -19 61 -11 5 -21 9 -23 9 -2 -1 -11 -3 -20 -6z m37 -63 c0 -44
-31 -56 -41 -16 -8 35 2 58 23 54 13 -2 18 -13 18 -38z"/>
<path d="M1918 130 c-37 -22 -30 -112 11 -123 55 -14 88 83 39 117 -26 18 -27
19 -50 6z m42 -61 c0 -33 -3 -40 -17 -37 -32 6 -30 78 2 78 11 0 15 -11 15
-41z"/>
<path d="M2032 124 c-49 -34 -16 -131 39 -117 42 11 50 73 9 73 -22 0 -28 -16
-8 -22 15 -5 1 -28 -18 -28 -10 0 -14 12 -14 40 0 33 3 40 20 40 11 0 20 -4
20 -10 0 -5 5 -10 10 -10 18 0 11 29 -9 40 -25 13 -22 13 -49 -6z"/>
<path d="M2318 133 c-22 -6 -33 -40 -18 -58 6 -8 21 -15 33 -17 29 -4 19 -23
-12 -23 -14 -1 -26 -6 -28 -12 -5 -15 35 -23 64 -12 33 12 29 61 -6 69 -34 8
-39 30 -7 30 29 0 35 14 10 24 -9 3 -16 5 -17 5 -1 -1 -10 -3 -19 -6z"/>
<path d="M3142 124 c-31 -22 -31 -88 1 -108 12 -7 33 -13 46 -12 21 2 25 8 28
49 3 36 0 50 -16 66 -25 25 -30 26 -59 5z m48 -40 c0 -23 -20 -54 -34 -54 -3
0 -6 18 -6 40 0 33 3 40 20 40 15 0 20 -7 20 -26z"/>
<path d="M3486 127 c-26 -19 -18 -60 13 -67 14 -3 27 -12 29 -19 3 -10 -4 -12
-27 -9 -41 6 -51 -9 -15 -22 20 -8 32 -7 50 5 13 8 24 19 24 23 0 16 -25 40
-44 44 -33 5 -31 28 3 28 17 0 31 5 31 10 0 6 -4 10 -9 10 -5 0 -15 2 -23 5
-7 3 -22 -1 -32 -8z"/>
<path d="M4092 124 c-30 -21 -31 -87 -1 -108 25 -17 62 -7 67 18 4 17 -13 22
-23 6 -19 -31 -49 8 -38 51 5 16 11 19 34 14 33 -8 39 9 10 25 -25 13 -22 13
-49 -6z"/>
<path d="M4418 129 c-10 -5 -18 -21 -18 -35 0 -19 6 -26 30 -30 17 -4 30 -13
30 -20 0 -9 -11 -14 -30 -14 -34 0 -40 -15 -10 -23 30 -8 59 3 65 25 8 23 -9
46 -38 50 -31 4 -27 22 6 26 30 4 36 17 11 26 -21 8 -26 7 -46 -5z"/>
<path d="M10 70 l0 -60 40 0 c22 0 40 5 40 10 0 6 -13 10 -30 10 -29 0 -30 1
-30 50 0 28 -4 50 -10 50 -6 0 -10 -27 -10 -60z"/>
<path d="M80 114 c0 -17 22 -14 28 4 2 7 -3 12 -12 12 -9 0 -16 -7 -16 -16z"/>
<path d="M130 70 l0 -60 45 0 c25 0 45 5 45 10 0 6 -13 10 -30 10 -20 0 -30 5
-30 15 0 9 9 15 25 15 14 0 25 5 25 10 0 6 -11 10 -25 10 -16 0 -25 6 -25 15
0 10 10 15 30 15 17 0 30 5 30 10 0 6 -20 10 -45 10 l-45 0 0 -60z"/>
<path d="M470 70 l0 -60 45 0 c25 0 45 5 45 10 0 6 -13 10 -30 10 -29 0 -30 1
-30 50 0 38 -4 50 -15 50 -12 0 -15 -13 -15 -60z"/>
<path d="M580 70 l0 -60 40 0 c22 0 40 5 40 10 0 6 -13 10 -30 10 -20 0 -30 5
-30 15 0 9 9 15 25 15 14 0 25 5 25 10 0 6 -11 10 -25 10 -16 0 -25 6 -25 15
0 10 10 15 30 15 17 0 30 5 30 10 0 6 -18 10 -40 10 l-40 0 0 -60z"/>
<path d="M730 70 l0 -60 33 0 c42 0 57 15 57 56 0 54 -8 64 -51 64 l-39 0 0
-60z m65 20 c9 -30 -4 -60 -26 -60 -16 0 -19 7 -19 40 0 33 3 40 19 40 11 0
23 -9 26 -20z"/>
<path d="M850 70 l0 -60 40 0 c22 0 40 5 40 10 0 6 -13 10 -30 10 -20 0 -30 5
-30 15 0 9 9 15 25 15 14 0 25 5 25 10 0 6 -11 10 -25 10 -16 0 -25 6 -25 15
0 10 10 15 30 15 17 0 30 5 30 10 0 6 -18 10 -40 10 l-40 0 0 -60z"/>
<path d="M1100 120 c0 -5 7 -10 15 -10 11 0 15 -12 15 -50 0 -27 5 -50 10 -50
6 0 10 23 10 50 0 43 3 50 20 50 11 0 20 5 20 10 0 6 -20 10 -45 10 -25 0 -45
-4 -45 -10z"/>
<path d="M1210 70 l0 -60 40 0 c22 0 40 5 40 10 0 6 -13 10 -30 10 -20 0 -30
5 -30 15 0 9 9 15 25 15 14 0 25 5 25 10 0 6 -11 10 -25 10 -16 0 -25 6 -25
15 0 10 10 15 30 15 17 0 30 5 30 10 0 6 -18 10 -40 10 l-40 0 0 -60z"/>
<path d="M1430 70 c0 -47 3 -60 15 -60 9 0 15 9 15 25 0 18 5 25 20 25 15 0
20 -7 20 -25 0 -14 5 -25 10 -25 6 0 10 27 10 60 0 33 -4 60 -10 60 -5 0 -10
-11 -10 -25 0 -18 -5 -25 -20 -25 -15 0 -20 7 -20 25 0 16 -6 25 -15 25 -12 0
-15 -13 -15 -60z"/>
<path d="M1550 70 c0 -47 3 -60 15 -60 11 0 15 11 15 38 l0 37 22 -37 c33 -57
48 -49 48 22 0 33 -4 60 -10 60 -5 0 -10 -15 -10 -32 l-1 -33 -27 33 c-40 48
-52 42 -52 -28z"/>
<path d="M1800 70 l0 -60 40 0 c22 0 40 5 40 10 0 6 -13 10 -30 10 -29 0 -30
1 -30 50 0 28 -4 50 -10 50 -6 0 -10 -27 -10 -60z"/>
<path d="M2130 70 c0 -47 3 -60 15 -60 12 0 15 13 15 60 0 47 -3 60 -15 60
-12 0 -15 -13 -15 -60z"/>
<path d="M2190 70 l0 -60 40 0 c22 0 40 5 40 10 0 6 -13 10 -30 10 -20 0 -30
5 -30 15 0 9 9 15 25 15 14 0 25 5 25 10 0 6 -11 10 -25 10 -16 0 -25 6 -25
15 0 10 10 15 30 15 17 0 30 5 30 10 0 6 -18 10 -40 10 l-40 0 0 -60z"/>
<path d="M2450 70 c0 -33 4 -60 10 -60 6 0 10 15 10 33 l1 32 27 -33 c40 -48
52 -42 52 28 0 47 -3 60 -15 60 -11 0 -15 -11 -15 -37 l0 -38 -22 38 c-33 56
-48 48 -48 -23z"/>
<path d="M2570 85 c0 -32 6 -51 20 -65 24 -24 29 -24 58 -4 18 12 22 25 22 65
0 37 -4 49 -15 49 -11 0 -15 -12 -15 -50 0 -43 -3 -50 -20 -50 -17 0 -20 7
-20 50 0 38 -4 50 -15 50 -11 0 -15 -12 -15 -45z"/>
<path d="M2700 70 c0 -33 4 -60 10 -60 6 0 10 15 10 33 1 29 2 30 12 12 17
-31 18 -31 38 -5 l20 25 0 -32 c0 -18 5 -33 10 -33 6 0 10 27 10 60 0 69 -17
80 -42 28 l-16 -33 -12 33 c-20 55 -40 41 -40 -28z"/>
<path d="M2840 70 l0 -60 45 0 c25 0 45 5 45 10 0 6 -13 10 -30 10 -20 0 -30
5 -30 15 0 9 9 15 25 15 14 0 25 5 25 10 0 6 -11 10 -25 10 -16 0 -25 6 -25
15 0 10 10 15 30 15 17 0 30 5 30 10 0 6 -20 10 -45 10 l-45 0 0 -60z"/>
<path d="M2950 71 c0 -48 3 -61 15 -61 10 0 15 10 15 28 l1 27 22 -27 c29 -36
57 -39 34 -4 -11 16 -12 27 -6 33 6 6 9 21 7 34 -2 20 -10 24 -45 27 l-43 3 0
-60z m70 24 c0 -8 -9 -15 -20 -15 -11 0 -20 7 -20 15 0 8 9 15 20 15 11 0 20
-7 20 -15z"/>
<path d="M3070 70 c0 -47 3 -60 15 -60 12 0 15 13 15 60 0 47 -3 60 -15 60
-12 0 -15 -13 -15 -60z"/>
<path d="M3240 81 c0 -39 4 -53 21 -65 41 -29 79 5 79 71 0 31 -4 43 -14 43
-11 0 -16 -14 -18 -47 -2 -36 -7 -49 -20 -51 -15 -3 -18 4 -18 47 0 39 -4 51
-15 51 -11 0 -15 -12 -15 -49z"/>
<path d="M3360 70 l0 -60 45 0 c25 0 45 5 45 10 0 6 -13 10 -30 10 -20 0 -30
5 -30 15 0 9 9 15 25 15 14 0 25 5 25 10 0 6 -11 10 -25 10 -16 0 -25 6 -25
15 0 10 10 15 30 15 17 0 30 5 30 10 0 6 -20 10 -45 10 l-45 0 0 -60z"/>
<path d="M3637 88 c-8 -24 -18 -51 -22 -60 -5 -13 -2 -18 9 -18 9 0 16 5 16
10 0 6 11 10 25 10 14 0 25 -4 25 -10 0 -5 6 -10 14 -10 12 0 11 11 -6 60 -11
33 -26 60 -33 60 -7 0 -20 -19 -28 -42z m43 -30 c0 -5 -7 -8 -15 -8 -17 0 -18
2 -9 25 5 13 8 14 15 3 5 -7 9 -16 9 -20z"/>
<path d="M3726 108 c21 -68 32 -92 41 -95 6 -2 20 23 31 57 16 47 18 60 7 60
-7 0 -16 -13 -20 -30 -10 -43 -23 -46 -31 -5 -4 21 -12 35 -21 35 -10 0 -12
-6 -7 -22z"/>
<path d="M3841 75 c-25 -66 -25 -65 -6 -65 8 0 15 5 15 10 0 6 11 10 25 10 14
0 25 -4 25 -10 0 -5 6 -10 14 -10 12 0 10 11 -7 60 -12 33 -27 60 -34 60 -6 0
-21 -25 -32 -55z m37 -24 c-15 -5 -19 4 -11 24 6 18 7 18 13 -1 4 -10 3 -21
-2 -23z"/>
<path d="M3950 70 c0 -63 16 -83 22 -27 l4 32 19 -32 c31 -51 45 -42 45 27 0
33 -4 60 -10 60 -5 0 -10 -15 -10 -32 l-1 -33 -27 33 c-15 18 -30 32 -34 32
-5 0 -8 -27 -8 -60z"/>
<path d="M4190 70 l0 -60 40 0 c22 0 40 5 40 10 0 6 -13 10 -30 10 -20 0 -30
5 -30 15 0 9 9 15 25 15 14 0 25 5 25 10 0 6 -11 10 -25 10 -16 0 -25 6 -25
15 0 10 10 15 30 15 17 0 30 5 30 10 0 6 -18 10 -40 10 l-40 0 0 -60z"/>
<path d="M4300 70 l0 -60 40 0 c22 0 40 5 40 10 0 6 -13 10 -30 10 -20 0 -30
5 -30 15 0 9 9 15 25 15 14 0 25 5 25 10 0 6 -11 10 -25 10 -16 0 -25 6 -25
15 0 10 10 15 30 15 17 0 30 5 30 10 0 6 -18 10 -40 10 l-40 0 0 -60z"/>
</g>
</svg>
